<svg width="133" height="40" viewBox="0 0 133 40" fill="none" xmlns="http://www.w3.org/2000/svg">
<path d="M0 10.8C0 7.01965 0 5.12947 0.735706 3.68556C1.38285 2.41547 2.41547 1.38285 3.68556 0.735706C5.12947 0 7.01965 0 10.8 0H122.2C125.98 0 127.871 0 129.314 0.735706C130.585 1.38285 131.617 2.41547 132.264 3.68556C133 5.12947 133 7.01965 133 10.8V29.2C133 32.9804 133 34.8705 132.264 36.3144C131.617 37.5845 130.585 38.6171 129.314 39.2643C127.871 40 125.98 40 122.2 40H10.8C7.01965 40 5.12947 40 3.68556 39.2643C2.41547 38.6171 1.38285 37.5845 0.735706 36.3144C0 34.8705 0 32.9804 0 29.2V10.8Z" fill="#100F0D"/>
<path d="M45.3963 25.4117H48.892L47.6405 22.0615C47.4683 21.5986 47.2989 21.0875 47.132 20.5276C46.9813 21.0229 46.8171 21.5286 46.6395 22.0453L45.3963 25.4117ZM49.4893 27.0021H44.8069L43.6608 30.1344H41.6021L46.1875 18.4368H48.1331L52.8235 30.1344H50.66L49.4893 27.0021Z" fill="white"/>
<path d="M58.8963 28.0072C59.3027 27.461 59.5059 26.663 59.5059 25.6135C59.5059 24.6396 59.3376 23.933 59.0013 23.4943C58.6648 23.0557 58.2168 22.8365 57.6571 22.8365C57.2696 22.8365 56.9117 22.9281 56.5835 23.1109C56.2552 23.2939 55.9429 23.5387 55.6469 23.8455V28.5118C55.8461 28.6085 56.0776 28.6853 56.3413 28.7416C56.6051 28.7984 56.8661 28.8267 57.1243 28.8267C57.8995 28.8267 58.4899 28.5533 58.8963 28.0072ZM53.6531 23.555C53.6531 22.9092 53.6315 22.1986 53.5886 21.4238H55.4613C55.5312 21.7844 55.5797 22.1531 55.6067 22.5297C56.3816 21.6849 57.2696 21.2622 58.2707 21.2622C58.852 21.2622 59.3902 21.4089 59.8854 21.7021C60.3803 21.9955 60.78 22.4583 61.084 23.0906C61.3883 23.7231 61.5403 24.5266 61.5403 25.5005C61.5403 26.5177 61.3667 27.387 61.0195 28.108C60.6723 28.8294 60.1867 29.3754 59.5624 29.747C58.9381 30.1181 58.2168 30.3039 57.3989 30.3039C56.8067 30.3039 56.2227 30.2043 55.6469 30.0053V33.6056L53.6531 33.7752V23.555Z" fill="white"/>
<path d="M67.9936 28.0072C68.4 27.461 68.6032 26.663 68.6032 25.6135C68.6032 24.6396 68.4349 23.933 68.0987 23.4943C67.7621 23.0557 67.3141 22.8365 66.7544 22.8365C66.3669 22.8365 66.0091 22.9281 65.6808 23.1109C65.3523 23.2939 65.0403 23.5387 64.7443 23.8455V28.5118C64.9435 28.6085 65.1747 28.6853 65.4387 28.7416C65.7021 28.7984 65.9632 28.8267 66.2216 28.8267C66.9965 28.8267 67.5872 28.5533 67.9936 28.0072ZM62.7501 23.555C62.7501 22.9092 62.7285 22.1986 62.6856 21.4238H64.5587C64.6285 21.7844 64.6771 22.1531 64.704 22.5297C65.4789 21.6849 66.3669 21.2622 67.368 21.2622C67.9493 21.2622 68.4872 21.4089 68.9827 21.7021C69.4776 21.9955 69.8773 22.4583 70.1816 23.0906C70.4853 23.7231 70.6376 24.5266 70.6376 25.5005C70.6376 26.5177 70.4637 27.387 70.1168 28.108C69.7696 28.8294 69.2837 29.3754 68.6597 29.747C68.0352 30.1181 67.3141 30.3039 66.496 30.3039C65.904 30.3039 65.32 30.2043 64.7443 30.0053V33.6056L62.7501 33.7752V23.555Z" fill="white"/>
<path d="M74.3005 29.5814C73.4392 29.1053 72.7773 28.4229 72.3147 27.5349C71.8515 26.6469 71.6203 25.5974 71.6203 24.3864C71.6203 23.0734 71.8867 21.9578 72.4195 21.0401C72.9523 20.1227 73.6776 19.4338 74.5949 18.9735C75.5128 18.5134 76.5419 18.2833 77.6832 18.2833C78.3557 18.2833 78.9976 18.3574 79.6085 18.5053C80.2192 18.6534 80.7883 18.8565 81.316 19.1149L80.8072 20.6486C79.7469 20.1428 78.7352 19.8898 77.772 19.8898C76.9592 19.8898 76.2475 20.0634 75.6368 20.4106C75.0259 20.7578 74.5507 21.2677 74.2118 21.9404C73.8726 22.6132 73.7032 23.4258 73.7032 24.3783C73.7032 25.2128 73.8336 25.9526 74.0944 26.5984C74.3557 27.2443 74.7675 27.7557 75.3299 28.1323C75.8923 28.5091 76.6013 28.6973 77.4571 28.6973C77.8445 28.6973 78.232 28.6651 78.6195 28.6005C79.007 28.536 79.3704 28.4419 79.7093 28.3179V25.9526H77.0051V24.4026H81.6469V29.3272C80.9795 29.6392 80.2784 29.879 79.544 30.0456C78.8091 30.2123 78.0787 30.2957 77.352 30.2957C76.1787 30.2957 75.1613 30.0579 74.3005 29.5814Z" fill="white"/>
<path d="M87.5381 28.5197C87.9523 28.3208 88.2915 28.073 88.5552 27.7771V26.1625C88.0115 26.1034 87.5675 26.0738 87.2232 26.0738C86.3997 26.0738 85.8304 26.2068 85.516 26.4734C85.2008 26.7395 85.0435 27.099 85.0435 27.5509C85.0435 27.9819 85.1579 28.3005 85.3867 28.5077C85.6155 28.7149 85.9261 28.8184 86.3189 28.8184C86.7171 28.8184 87.1235 28.719 87.5381 28.5197ZM88.7328 30.1344C88.6627 29.7952 88.6168 29.4106 88.5955 28.98C88.2888 29.3461 87.8894 29.6568 87.3965 29.9125C86.9045 30.168 86.3486 30.2957 85.7296 30.2957C85.2291 30.2957 84.7731 30.1976 84.3611 30.001C83.9499 29.8048 83.6227 29.5087 83.3805 29.113C83.1384 28.7176 83.0171 28.2347 83.0171 27.6639C83.0171 26.8192 83.3211 26.145 83.9293 25.6417C84.5376 25.1385 85.552 24.887 86.9728 24.887C87.5056 24.887 88.0331 24.9248 88.5552 25V24.8305C88.5552 24.0609 88.3909 23.5187 88.0627 23.2037C87.7344 22.8891 87.2635 22.7316 86.6501 22.7316C86.2248 22.7316 85.7701 22.7935 85.2856 22.9172C84.8013 23.0411 84.376 23.1891 84.0101 23.3613L83.6952 21.9081C84.0504 21.7466 84.5187 21.5986 85.1 21.4641C85.6813 21.3297 86.2947 21.2622 86.9405 21.2622C87.6941 21.2622 88.3344 21.3766 88.8619 21.6052C89.3894 21.8341 89.8011 22.2271 90.0971 22.7839C90.3931 23.3411 90.5411 24.0906 90.5411 25.0323V28.4954C90.5411 28.8562 90.5624 29.4027 90.6056 30.1344H88.7328Z" fill="white"/>
<path d="M92.0709 28.0434V17.7505L94.0568 17.5891V27.6882C94.0568 28.0597 94.12 28.3219 94.2464 28.4754C94.3728 28.6285 94.5733 28.7056 94.848 28.7056C94.9717 28.7056 95.1466 28.6761 95.3725 28.6168L95.6067 30.0456C95.4181 30.121 95.1883 30.1816 94.9168 30.2272C94.6448 30.2728 94.3877 30.2957 94.1456 30.2957C92.7621 30.2957 92.0709 29.5451 92.0709 28.0434Z" fill="white"/>
<path d="M97.0357 28.0434V17.7505L99.0216 17.5891V27.6882C99.0216 28.0597 99.0848 28.3219 99.2112 28.4754C99.3379 28.6285 99.5384 28.7056 99.8128 28.7056C99.9365 28.7056 100.111 28.6761 100.338 28.6168L100.572 30.0456C100.383 30.121 100.153 30.1816 99.8816 30.2272C99.6096 30.2728 99.3525 30.2957 99.1104 30.2957C97.7272 30.2957 97.0357 29.5451 97.0357 28.0434Z" fill="white"/>
<path d="M106.795 24.7659C106.755 24.0717 106.581 23.551 106.269 23.2037C105.957 22.8568 105.539 22.683 105.019 22.683C104.512 22.683 104.091 22.8581 103.755 23.2078C103.419 23.5578 103.197 24.0771 103.096 24.7659H106.795ZM108.739 26.0333H103.04C103.131 27.8579 104 28.7701 105.648 28.7701C106.056 28.7701 106.475 28.7203 106.904 28.6208C107.331 28.521 107.741 28.388 108.133 28.221L108.571 29.5853C107.595 30.0592 106.501 30.2957 105.285 30.2957C104.357 30.2957 103.579 30.121 102.944 29.7711C102.307 29.4214 101.829 28.9181 101.509 28.2614C101.19 27.6051 101.03 26.8139 101.03 25.888C101.03 24.9248 101.199 24.0958 101.539 23.4016C101.877 22.7073 102.349 22.1773 102.955 21.8113C103.56 21.4453 104.259 21.2622 105.051 21.2622C105.875 21.2622 106.56 21.4547 107.112 21.8396C107.664 22.2242 108.072 22.737 108.339 23.3773C108.605 24.018 108.739 24.7255 108.739 25.5005V26.0333Z" fill="white"/>
<path d="M110.248 23.6115C110.248 23.1326 110.224 22.4034 110.181 21.4238H112.048C112.08 21.666 112.109 21.9552 112.141 22.2917C112.171 22.6279 112.189 22.901 112.2 23.1109C112.432 22.7289 112.659 22.4073 112.883 22.1464C113.107 21.8851 113.368 21.6727 113.667 21.5083C113.965 21.3443 114.304 21.2622 114.688 21.2622C114.995 21.2622 115.256 21.2946 115.477 21.3592L115.227 23.0868C115.035 23.0276 114.819 22.9979 114.581 22.9979C114.115 22.9979 113.704 23.1177 113.355 23.3573C113.005 23.5966 112.632 23.9908 112.232 24.5398V30.1344H110.248V23.6115Z" fill="white"/>
<path d="M116.597 33.6984C116.307 33.6475 116.067 33.5896 115.88 33.5251L116.243 32.072C116.376 32.1094 116.547 32.1458 116.752 32.1808C116.955 32.2161 117.149 32.2333 117.333 32.2333C118.216 32.2333 118.877 31.6653 119.317 30.5299L119.448 30.207L116.235 21.4238H118.373L119.989 26.332C120.251 27.1718 120.421 27.8149 120.496 28.2614C120.648 27.6318 120.824 27.0021 121.029 26.3724L122.669 21.4238H124.677L121.475 30.2475C121.173 31.0816 120.845 31.7542 120.496 32.2656C120.147 32.7768 119.733 33.1562 119.259 33.4039C118.781 33.6513 118.208 33.7752 117.533 33.7752C117.2 33.7752 116.888 33.7499 116.597 33.6984Z" fill="white"/>
<path d="M41.5933 7.30107H45.1475L45.0475 8.15947H42.6349V9.82187H44.9099V10.6261H42.6349V12.4677H45.1765L45.0891 13.3344H41.5933V7.30107Z" fill="white"/>
<path d="M47.5973 10.2552L45.7224 7.30107H46.9056L48.1765 9.472L49.5141 7.30107H50.664L48.8056 10.2176L50.8181 13.3344H49.6181L48.1808 10.9595L46.7181 13.3344H45.5683L47.5973 10.2552Z" fill="white"/>
<path d="M54.1973 9.99467C54.4195 9.79361 54.5307 9.50934 54.5307 9.14267C54.5307 8.7704 54.4173 8.50267 54.1912 8.33867C53.9648 8.17467 53.632 8.0928 53.1933 8.0928H52.6267V10.2344C52.8877 10.276 53.0877 10.2968 53.2267 10.2968C53.6515 10.2968 53.9752 10.1963 54.1973 9.99467ZM51.5848 7.30107H53.2099C53.9736 7.30107 54.5584 7.45681 54.964 7.76774C55.3696 8.07894 55.5723 8.52881 55.5723 9.11761C55.5723 9.51761 55.4813 9.8672 55.2995 10.1656C55.1173 10.4643 54.864 10.6936 54.5389 10.8531C54.2141 11.0131 53.8402 11.0928 53.4181 11.0928C53.1877 11.0928 52.9237 11.0651 52.6267 11.0093V13.3344H51.5848V7.30107Z" fill="white"/>
<path d="M56.6016 7.30107H57.6432V12.4427H60.1389L60.0515 13.3344H56.6016V7.30107Z" fill="white"/>
<path d="M64.4224 12.2989C64.7141 12.1032 64.932 11.8339 65.0765 11.4907C65.2211 11.1477 65.2933 10.7552 65.2933 10.3136C65.2933 9.88026 65.2293 9.4944 65.1016 9.1552C64.9736 8.81626 64.7696 8.5464 64.489 8.3448C64.2085 8.14347 63.8475 8.04266 63.4056 8.04266C62.9835 8.04266 62.6251 8.1448 62.3307 8.34906C62.0363 8.55306 61.8154 8.82693 61.6682 9.16986C61.521 9.51306 61.4475 9.89146 61.4475 10.3053C61.4475 10.7413 61.5168 11.1317 61.6557 11.476C61.7944 11.8205 62.0069 12.0928 62.2933 12.2928C62.5792 12.4928 62.9333 12.5928 63.3557 12.5928C63.7752 12.5928 64.1307 12.4947 64.4224 12.2989ZM61.7224 13.0387C61.2808 12.7859 60.9432 12.4309 60.7099 11.9739C60.4765 11.5171 60.36 10.9859 60.36 10.3803C60.36 9.74426 60.484 9.188 60.7328 8.71147C60.9813 8.2352 61.3397 7.8672 61.8077 7.6072C62.2757 7.34773 62.8277 7.2176 63.464 7.2176C64.0723 7.2176 64.596 7.34347 65.0349 7.59467C65.4736 7.8464 65.8085 8.19973 66.0389 8.6552C66.2696 9.11093 66.3848 9.63866 66.3848 10.2387C66.3848 10.8859 66.2592 11.4485 66.0077 11.9261C65.7563 12.4037 65.3981 12.772 64.9328 13.0301C64.4675 13.2885 63.9211 13.4177 63.2933 13.4177C62.6877 13.4177 62.164 13.2915 61.7224 13.0387Z" fill="white"/>
<path d="M69.1808 10.1552C69.4334 10.1552 69.6571 10.1061 69.8515 10.0072C70.0459 9.90881 70.1973 9.76987 70.3056 9.59067C70.4141 9.41147 70.4683 9.20374 70.4683 8.96774C70.4683 8.66507 70.3723 8.44347 70.1808 8.3032C69.9891 8.16294 69.7099 8.0928 69.3432 8.0928H68.5891V10.1552H69.1808ZM67.5475 7.30107H69.4349C70.1237 7.30107 70.6454 7.43867 70.9995 7.7136C71.3536 7.98854 71.5307 8.38187 71.5307 8.8928C71.5307 9.21227 71.4667 9.4936 71.3389 9.73654C71.2112 9.97974 71.0528 10.1776 70.864 10.3301C70.675 10.4829 70.4808 10.5968 70.2808 10.672L72.1349 13.3344H70.9267L69.3557 10.9427H68.5891V13.3344H67.5475V7.30107Z" fill="white"/>
<path d="M72.96 7.30107H76.5141L76.4141 8.15947H74.0016V9.82187H76.2765V10.6261H74.0016V12.4677H76.5432L76.4557 13.3344H72.96V7.30107Z" fill="white"/>
<path d="M80.3808 7.30107H81.4224V13.3344H80.3808V7.30107Z" fill="white"/>
<path d="M84.1765 8.172H82.3056L82.3973 7.30107H87.0933L86.9973 8.172H85.2181V13.3344H84.1765V8.172Z" fill="white"/>
<path d="M94.3142 12.2989C94.6056 12.1032 94.8237 11.8339 94.9683 11.4907C95.1125 11.1477 95.1848 10.7552 95.1848 10.3136C95.1848 9.88026 95.1208 9.4944 94.9933 9.1552C94.8653 8.81626 94.6611 8.5464 94.3808 8.3448C94.1 8.14347 93.739 8.04266 93.2974 8.04266C92.875 8.04266 92.5168 8.1448 92.2224 8.34906C91.9277 8.55306 91.7069 8.82693 91.56 9.16986C91.4125 9.51306 91.3389 9.89146 91.3389 10.3053C91.3389 10.7413 91.4083 11.1317 91.5475 11.476C91.6861 11.8205 91.8987 12.0928 92.1848 12.2928C92.4709 12.4928 92.8251 12.5928 93.2475 12.5928C93.6667 12.5928 94.0224 12.4947 94.3142 12.2989ZM91.6142 13.0387C91.1723 12.7859 90.8349 12.4309 90.6016 11.9739C90.3683 11.5171 90.2515 10.9859 90.2515 10.3803C90.2515 9.74426 90.3757 9.188 90.6245 8.71147C90.8728 8.2352 91.2312 7.8672 91.6995 7.6072C92.1675 7.34773 92.7195 7.2176 93.3557 7.2176C93.964 7.2176 94.4875 7.34347 94.9267 7.59467C95.3653 7.8464 95.7 8.19973 95.9307 8.6552C96.1611 9.11093 96.2765 9.63866 96.2765 10.2387C96.2765 10.8859 96.1507 11.4485 95.8995 11.9261C95.648 12.4037 95.2896 12.772 94.8245 13.0301C94.3592 13.2885 93.8125 13.4177 93.1848 13.4177C92.5792 13.4177 92.0558 13.2915 91.6142 13.0387Z" fill="white"/>
<path d="M97.4389 7.30107H98.6349L101.619 11.976C101.592 11.5317 101.581 11.1219 101.581 10.7469V7.30107H102.547V13.3344H101.389L98.36 8.58427C98.3904 9.12347 98.4056 9.60107 98.4056 10.0176V13.3344H97.4389V7.30107Z" fill="white"/>
<path fill-rule="evenodd" clip-rule="evenodd" d="M26.9419 7.33333H15.8635C10.6448 7.33333 8.73599 9.24213 8.73599 14.4608V25.5394C8.73599 30.7579 10.6448 32.6667 15.8635 32.6667H26.9384C32.1571 32.6667 34.0693 30.7579 34.0693 25.5394V14.4608C34.0693 9.24213 32.1605 7.33333 26.9419 7.33333Z" fill="#C91C2E"/>
<path d="M19.7883 22.0255H20.8043L20.2947 20.8404L19.7883 22.0255ZM19.5381 22.6229L19.2368 23.3125H18.5507L20.0099 20.0022H20.6027L22.056 23.3125H21.3515L21.0539 22.6229H19.5381ZM30.5789 23.3102H31.2421V20.0022H30.5789V23.3102ZM27.9397 21.8887H29.1619V21.2859H27.9397V20.6078H29.7139V20.0043H27.2768V23.3122H29.7779V22.7089H27.9397V21.8887ZM25.3048 22.2797L24.5528 20.0021H24.0045L23.2525 22.2797L22.5208 20.0037H21.8056L22.96 23.3141H23.5163L24.2693 21.1396L25.0221 23.3141H25.5835L26.7349 20.0037H26.0381L25.3048 22.2797ZM17.5384 21.8979C17.5384 22.4365 17.2709 22.7242 16.7853 22.7242C16.2971 22.7242 16.0283 22.4283 16.0283 21.875V20.0041H15.3563V21.8979C15.3563 22.8297 15.8739 23.3639 16.7763 23.3639C17.6875 23.3639 18.2101 22.8195 18.2101 21.8705V20.0021H17.5384V21.8979ZM13.7528 20.0022H14.4245V23.3143H13.7528V21.9693H12.2352V23.3143H11.5632V20.0022H12.2352V21.3383H13.7528V20.0022Z" fill="white"/>
<path d="M21.4027 15.7851C19.0776 15.7851 17.1859 13.8933 17.1859 11.5683H17.7816C17.7816 13.5649 19.4059 15.1894 21.4027 15.1894C23.3995 15.1894 25.0237 13.5649 25.0237 11.5683H25.6195C25.6195 13.8933 23.7277 15.7851 21.4027 15.7851Z" fill="white"/>
<path d="M3.68556 39.2643L4.13955 38.3733L3.68556 39.2643ZM132.264 36.3144L131.373 35.8604L132.264 36.3144ZM129.314 39.2643L129.768 40.1553L129.314 39.2643ZM129.314 0.735706L129.768 -0.1553L129.314 0.735706ZM132.264 3.68556L133.155 3.23157L132.264 3.68556ZM10.8 1H122.2V-1H10.8V1ZM132 10.8V29.2H134V10.8H132ZM122.2 39H10.8V41H122.2V39ZM1 29.2V10.8H-1V29.2H1ZM10.8 39C8.89332 39 7.52346 38.9992 6.44805 38.9114C5.38431 38.8244 4.69704 38.6573 4.13955 38.3733L3.23157 40.1553C4.11799 40.607 5.09776 40.8077 6.28518 40.9047C7.46093 41.0008 8.92633 41 10.8 41V39ZM-1 29.2C-1 31.0737 -1.00078 32.5391 -0.904716 33.7148C-0.8077 34.9022 -0.606954 35.882 -0.1553 36.7684L1.62671 35.8604C1.34266 35.303 1.17555 34.6157 1.08864 33.552C1.00078 32.4765 1 31.1067 1 29.2H-1ZM4.13955 38.3733C3.05762 37.822 2.17798 36.9424 1.62671 35.8604L-0.1553 36.7684C0.587718 38.2267 1.77332 39.4123 3.23157 40.1553L4.13955 38.3733ZM132 29.2C132 31.1067 131.999 32.4765 131.911 33.552C131.824 34.6157 131.657 35.303 131.373 35.8604L133.155 36.7684C133.607 35.882 133.808 34.9022 133.905 33.7148C134.001 32.5391 134 31.0737 134 29.2H132ZM122.2 41C124.074 41 125.539 41.0008 126.715 40.9047C127.902 40.8077 128.882 40.607 129.768 40.1553L128.86 38.3733C128.303 38.6573 127.616 38.8244 126.552 38.9114C125.477 38.9992 124.107 39 122.2 39V41ZM131.373 35.8604C130.822 36.9424 129.942 37.822 128.86 38.3733L129.768 40.1553C131.227 39.4123 132.412 38.2267 133.155 36.7684L131.373 35.8604ZM122.2 1C124.107 1 125.477 1.00078 126.552 1.08864C127.616 1.17555 128.303 1.34266 128.86 1.62671L129.768 -0.1553C128.882 -0.606954 127.902 -0.8077 126.715 -0.904716C125.539 -1.00078 124.074 -1 122.2 -1V1ZM134 10.8C134 8.92632 134.001 7.46093 133.905 6.28518C133.808 5.09776 133.607 4.11799 133.155 3.23157L131.373 4.13955C131.657 4.69704 131.824 5.38431 131.911 6.44805C131.999 7.52346 132 8.89332 132 10.8H134ZM128.86 1.62671C129.942 2.17798 130.822 3.05762 131.373 4.13955L133.155 3.23157C132.412 1.77332 131.227 0.587718 129.768 -0.1553L128.86 1.62671ZM10.8 -1C8.92632 -1 7.46092 -1.00078 6.28518 -0.904716C5.09776 -0.8077 4.11799 -0.606954 3.23157 -0.1553L4.13955 1.62671C4.69704 1.34266 5.38431 1.17555 6.44805 1.08864C7.52345 1.00078 8.89332 1 10.8 1V-1ZM1 10.8C1 8.89332 1.00078 7.52345 1.08864 6.44804C1.17555 5.38431 1.34266 4.69704 1.62671 4.13955L-0.1553 3.23157C-0.606954 4.11799 -0.8077 5.09776 -0.904716 6.28518C-1.00078 7.46092 -1 8.92632 -1 10.8H1ZM3.23157 -0.1553C1.77332 0.587718 0.587718 1.77332 -0.1553 3.23157L1.62671 4.13955C2.17798 3.05762 3.05762 2.17798 4.13955 1.62671L3.23157 -0.1553Z" fill="#A6A6A6"/>
</svg>
